<svg width="24" height="24" viewBox="0 0 24 24" fill="none" xmlns="http://www.w3.org/2000/svg">
<path fill-rule="evenodd" clip-rule="evenodd" d="M4.23741 10.4574C9.06923 8.34056 12.2912 6.945 13.9033 6.27074C18.5063 4.34558 19.4627 4.01116 20.0861 4.00012C20.2232 3.99769 20.5298 4.03186 20.7284 4.19389C20.8961 4.33071 20.9422 4.51553 20.9643 4.64524C20.9864 4.77496 21.0139 5.07046 20.992 5.30135C20.7426 7.93675 19.6633 14.3322 19.1142 17.2838C18.8818 18.5328 18.4244 18.9516 17.9815 18.9926C17.0189 19.0816 16.288 18.3529 15.3558 17.7384C13.897 16.7769 13.0729 16.1783 11.6569 15.24C10.0205 14.1556 11.0813 13.5596 12.0139 12.5856C12.258 12.3307 16.4988 8.45188 16.5809 8.10001C16.5912 8.056 16.6007 7.89197 16.5038 7.80535C16.4069 7.71873 16.2639 7.74835 16.1606 7.77191C16.0143 7.8053 13.6839 9.35418 9.16938 12.4185C8.5079 12.8753 7.90875 13.0978 7.37193 13.0862C6.78013 13.0733 5.64175 12.7497 4.79548 12.4731C3.75749 12.1338 2.93252 11.9544 3.00436 11.3782C3.04178 11.0781 3.45279 10.7711 4.23741 10.4574Z" fill="white"/>
</svg>
