<svg xmlns="http://www.w3.org/2000/svg" xmlns:xlink="http://www.w3.org/1999/xlink"><symbol id="icon-insta" viewBox="0 0 24 24"><path fill="currentColor" fill-rule="evenodd" d="M7.465 1.066C8.638 1.012 9.012 1 12 1c2.988 0 3.362.013 4.534.066c1.172.053 1.972.24 2.672.511c.733.277 1.398.71 1.948 1.27c.56.549.992 1.213 1.268 1.947c.272.7.458 1.5.512 2.67C22.988 8.639 23 9.013 23 12c0 2.988-.013 3.362-.066 4.535c-.053 1.17-.24 1.97-.512 2.67a5.396 5.396 0 0 1-1.268 1.949c-.55.56-1.215.992-1.948 1.268c-.7.272-1.5.458-2.67.512c-1.174.054-1.548.066-4.536.066c-2.988 0-3.362-.013-4.535-.066c-1.17-.053-1.97-.24-2.67-.512a5.397 5.397 0 0 1-1.949-1.268a5.392 5.392 0 0 1-1.269-1.948c-.271-.7-.457-1.5-.511-2.67C1.012 15.361 1 14.987 1 12c0-2.988.013-3.362.066-4.534c.053-1.172.24-1.972.511-2.672a5.396 5.396 0 0 1 1.27-1.948a5.392 5.392 0 0 1 1.947-1.269c.7-.271 1.5-.457 2.67-.511m8.98 1.98c-1.16-.053-1.508-.064-4.445-.064c-2.937 0-3.285.011-4.445.064c-1.073.049-1.655.228-2.043.379c-.513.2-.88.437-1.265.822a3.412 3.412 0 0 0-.822 1.265c-.151.388-.33.97-.379 2.043c-.053 1.16-.064 1.508-.064 4.445c0 2.937.011 3.285.064 4.445c.049 1.073.228 1.655.379 2.043c.176.477.457.91.822 1.265c.355.365.788.646 1.265.822c.388.151.97.33 2.043.379c1.16.053 1.507.064 4.445.064c2.938 0 3.285-.011 4.445-.064c1.073-.049 1.655-.228 2.043-.379c.513-.2.88-.437 1.265-.822c.365-.355.646-.788.822-1.265c.151-.388.33-.97.379-2.043c.053-1.16.064-1.508.064-4.445c0-2.937-.011-3.285-.064-4.445c-.049-1.073-.228-1.655-.379-2.043c-.2-.513-.437-.88-.822-1.265a3.413 3.413 0 0 0-1.265-.822c-.388-.151-.97-.33-2.043-.379m-5.85 12.345a3.669 3.669 0 0 0 4-5.986a3.67 3.67 0 1 0-4 5.986M8.002 8.002a5.654 5.654 0 1 1 7.996 7.996a5.654 5.654 0 0 1-7.996-7.996m10.906-.814a1.337 1.337 0 1 0-1.89-1.89a1.337 1.337 0 0 0 1.89 1.89" clip-rule="evenodd"/></symbol><symbol id="icon-tg" viewBox="0 0 24 24">
<path fill-rule="evenodd" clip-rule="evenodd" d="M4.23741 10.4574C9.06923 8.34056 12.2912 6.945 13.9033 6.27074C18.5063 4.34558 19.4627 4.01116 20.0861 4.00012C20.2232 3.99769 20.5298 4.03186 20.7284 4.19389C20.8961 4.33071 20.9422 4.51553 20.9643 4.64524C20.9864 4.77496 21.0139 5.07046 20.992 5.30135C20.7426 7.93675 19.6633 14.3322 19.1142 17.2838C18.8818 18.5328 18.4244 18.9516 17.9815 18.9926C17.0189 19.0816 16.288 18.3529 15.3558 17.7384C13.897 16.7769 13.0729 16.1783 11.6569 15.24C10.0205 14.1556 11.0813 13.5596 12.0139 12.5856C12.258 12.3307 16.4988 8.45188 16.5809 8.10001C16.5912 8.056 16.6007 7.89197 16.5038 7.80535C16.4069 7.71873 16.2639 7.74835 16.1606 7.77191C16.0143 7.8053 13.6839 9.35418 9.16938 12.4185C8.5079 12.8753 7.90875 13.0978 7.37193 13.0862C6.78013 13.0733 5.64175 12.7497 4.79548 12.4731C3.75749 12.1338 2.93252 11.9544 3.00436 11.3782C3.04178 11.0781 3.45279 10.7711 4.23741 10.4574Z" fill="white"/>
</symbol><symbol id="icon-vk" viewBox="0 0 24 24">
<path d="M12.6208 18C5.9584 18 2.15834 13.4955 2 6H5.33729C5.44691 11.5015 7.90719 13.8318 9.85597 14.3123V6H12.9985V10.7447C14.9229 10.5405 16.9445 8.37838 17.6266 6H20.7691C20.2453 8.93093 18.053 11.0931 16.4939 11.982C18.053 12.7027 20.55 14.5886 21.5 18H18.0408C17.2978 15.7177 15.4467 13.952 12.9985 13.7117V18H12.6208Z" fill="white"/>
</symbol></svg>